# xmcd
#
# Track frame offsets: 
#        150
#        38612
#        68410
#        99812
#        131443
#        153149
#        185126
#        221013
#        241764
#        277039
#        295415
#        320826
#
# Disc length: 4668 seconds
#
# Revision: 0
# Processed by: cddbd v1.5.2PL0 Copyright (c) Steve Scherf et al.
# Submitted via: ExactAudioCopy v1.0b3
#
DISCID=a8123a0c
DTITLE=Various Artist - Lost In Trance Vol. 1 - CD 2
DYEAR=1900
DGENRE=
TTITLE0=Lume - Do While (Original Mix)
TTITLE1=Jes - Ghost (Phynn Rmx)
TTITLE2=Johan Gielen - Magnitude
TTITLE3=Mark Eteson - Atlantic (G&M Project Mix)
TTITLE4=Darren Tate - Echoes (Original 12" Mix)
TTITLE5=Electric Pulse - Cotton Candy
TTITLE6=Global Experience - Madras
TTITLE7=Temple One - Forever Searching (Original Mix)
TTITLE8=Neal Scarborough - Stung On The River (Sean Tyas Rmx)
TTITLE9=Store 'n' Forward and Cressida - Why Don't We Talk About It
TTITLE10=DJ Falk Vs. DJ Sakin - No Fate 2007 (DJ Sakin Rmx)
TTITLE11=Azure - Only When You Leave (Jay Frog Pres. Dirty Disco Dudes
TTITLE11=Rmx)
EXTD=
EXTT0=
EXTT1=
EXTT2=
EXTT3=
EXTT4=
EXTT5=
EXTT6=
EXTT7=
EXTT8=
EXTT9=
EXTT10=
EXTT11=
PLAYORDER=
